<?xml version="1.0"?>
<svg xmlns="http://www.w3.org/2000/svg" xmlns:xlink="http://www.w3.org/1999/xlink" xmlns:svgjs="http://svgjs.com/svgjs" version="1.1" width="512" height="512" x="0" y="0" viewBox="0 0 68 68" style="enable-background:new 0 0 512 512" xml:space="preserve" class=""><g><g xmlns="http://www.w3.org/2000/svg"><path d="m60.11151 13.80182v18.39438c0 .69349-.56545 1.24832-1.24832 1.24832h-18.40499c-.68287 0-1.23771-.55484-1.23771-1.24832v-18.39438c0-.69348.55484-1.24832 1.23771-1.24832h18.40499c.68286 0 1.24832.55484 1.24832 1.24832z" fill="#00000000" data-original="#ffffff" style="" class=""/><path d="m57.35874 22.99898c0 4.24653-3.44625 7.69278-7.69271 7.69278-4.25714 0-7.70345-3.44625-7.70345-7.69278 0-4.24646 3.44631-7.69271 7.70345-7.69271 4.24646 0 7.69271 3.44624 7.69271 7.69271z" fill="#00000000" data-original="#ffffff" style="" class=""/><g><g><g><circle cx="46.541" cy="24.628" fill="#d60c0c" r="1.43" data-original="#8f9fff" style="" class=""/></g><g><circle cx="52.783" cy="24.628" fill="#d60c0c" r="1.43" data-original="#8f9fff" style="" class=""/></g></g><g><path d="m50.65967 19.28788v1.74982c0 .55096-.44664.9976-.9976.9976-.55096 0-.9976-.44664-.9976-.9976v-1.74982c0-.55096.44664-.9976.9976-.9976.55096 0 .9976.44664.9976.9976z" fill="#d60c0c" data-original="#8f9fff" style="" class=""/></g></g><g fill="#fff"><path d="m34.43871 23.88548c.6978 4.91805-1.07036 9.44003-4.25051 12.51743-2.78847 2.69837-4.43269 6.36271-4.43269 10.24301v.00061h-11.25637v-.00001c0-3.88846-1.65921-7.55118-4.44924-10.25967-2.70598-2.62689-4.38512-6.30162-4.38512-10.37522 0-8.54033 7.39648-15.35035 16.13429-14.37466 6.44243.71939 11.72899 5.83033 12.63964 12.24851z" fill="#00000000" data-original="#ffffff" style="" class=""/><path d="m27.94813 48.81778c0 1.19916-.97211 2.17126-2.17126 2.17126h-11.29903c-1.19915 0-2.17126-.97211-2.17126-2.17126 0-1.19915.97211-2.17126 2.17126-2.17126h11.29903c1.19915 0 2.17126.97211 2.17126 2.17126z" fill="#00000000" data-original="#ffffff" style="" class=""/><path d="m27.94813 53.1603c0 1.19915-.97211 2.17126-2.17126 2.17126h-11.29903c-1.19915 0-2.17126-.97211-2.17126-2.17126 0-1.19915.97211-2.17126 2.17126-2.17126h11.29903c1.19915 0 2.17126.97211 2.17126 2.17126z" fill="#00000000" data-original="#ffffff" style="" class=""/></g><path d="m15.52057 55.33156c.04252 2.51318 2.08865 4.53163 4.61212 4.53163 2.51292 0 4.55892-2.01845 4.60144-4.53163z" fill="#d60c0c" data-original="#8f9fff" style="" class=""/><path d="m50.33921 43.36744v13.00673l-10.0739-1.80787c-.75328-.13057-1.30568-.7935-1.30568-1.55678v-6.27737c0-.76334.5524-1.42626 1.30568-1.55684z" fill="#00000000" data-original="#ffffff" style="" class=""/><path d="m50.339 41.951h3.766v15.839h-3.766z" fill="#d60c0c" data-original="#8f9fff" style="" class=""/><g fill="#fff"><path d="m60.98041 45.52755c0 .91028-.73793 1.6482-1.6482 1.6482h-5.23014v-3.29641h5.23014c.91027 0 1.6482.73793 1.6482 1.64821z" fill="#00000000" data-original="#ffffff" style="" class=""/><path d="m60.98041 54.21415c0 .91028-.73793 1.64821-1.6482 1.64821h-5.23014v-3.29641h5.23014c.91027 0 1.6482.73793 1.6482 1.6482z" fill="#00000000" data-original="#ffffff" style="" class=""/></g><g><path d="m38.95963 47.91731v3.90699h-1.43631c-1.08469 0-1.95849-.87381-1.95849-1.9485 0-.54234.22093-1.03448.5725-1.38599.35151-.35157.84365-.5725 1.38599-.5725z" fill="#d60c0c" data-original="#8f9fff" style="" class=""/><g fill="#2a44e2"><path d="m65.17056 30.76472c.07688.66759 1.07116.53551.99219-.11719-.16016-1.36035-.41016-2.71582-.74414-4.0293-.06836-.26709-.33984-.42969-.60742-.36182-.26758.06836-.42969.34033-.36133.60791.32227 1.27101.56445 2.58351.7207 3.9004z" fill="#d60c0c" data-original="#2a44e2" style="" class=""/><path d="m66.01822 35.0616c-.00684-.00049-.0127-.00049-.01855-.00049-.26758 0-.49023.21191-.5.48193-.17383 4.74316-1.42969 9.48145-3.63281 13.70117-.12793.24463-.0332.54688.21191.6748.2444.12703.54725.03339.6748-.21191 2.27148-4.35107 3.56641-9.23633 3.74609-14.12793.00977-.27587-.20605-.5078-.48144-.51757z" fill="#d60c0c" data-original="#2a44e2" style="" class=""/><path d="m2.55728 36.53719c-.02051-.27637-.26758-.48096-.53711-.45996-.27441.02148-.48047.26172-.45898.53711.62012 8.0127 4.33594 15.81299 10.19434 21.3999.1998.19072.51602.18292.70703-.0166.19043-.2002.18262-.5166-.01758-.70703-5.68165-5.41895-9.28516-12.9834-9.8877-20.75342z" fill="#d60c0c" data-original="#2a44e2" style="" class=""/><path d="m1.97623 33.28963c.00781.00049.01563.00049.02344.00049.26563 0 .4873-.20898.49902-.47656.06152-1.30322.20996-2.60791.44238-3.87793.0498-.27148-.13086-.53223-.40234-.58154-.26953-.05322-.53125.12939-.58203.40186-.24023 1.31396-.39355 2.66309-.45605 4.01074-.01368.27587.20018.51024.47558.52294z" fill="#d60c0c" data-original="#2a44e2" style="" class=""/><path d="m18.80435 7.67049c1.57715-.8667 3.24707-1.61182 4.96289-2.21387.25977-.09131.39746-.37646.30566-.63721-.09082-.26025-.37305-.39844-.6377-.30615-1.76758.62012-3.4873 1.3877-5.11328 2.28125-.24121.13281-.33008.43701-.19727.67871.13238.23869.43223.33197.6797.19727z" fill="#d60c0c" data-original="#2a44e2" style="" class=""/><path d="m28.18521 4.23592c7.31641-1.49609 14.78028-.5166 21.0166 2.76025.24817.12898.5486.03156.6748-.21045.12891-.24414.03418-.54639-.20996-.67529-6.43945-3.38232-14.13672-4.39551-21.68262-2.854-.27051.05518-.44434.31934-.38965.58984.05567.27099.31642.44336.59083.38965z" fill="#d60c0c" data-original="#2a44e2" style="" class=""/><path d="m49.67001 31.19637c4.51001 0 8.19-3.67999 8.19-8.20001 0-4.51001-3.67999-8.19-8.19-8.19-4.52997 0-8.21002 3.67999-8.21002 8.19 0 4.52001 3.68006 8.20001 8.21002 8.20001zm0-15.39002c3.96002 0 7.19 3.22998 7.19 7.19 0 3.96997-3.22998 7.20001-7.19 7.20001-3.97998 0-7.21002-3.23004-7.21002-7.20001 0-3.96002 3.23004-7.19 7.21002-7.19z" fill="#d60c0c" data-original="#2a44e2" style="" class=""/><path d="m59.32999 47.67635c1.19 0 2.15002-.96002 2.15002-2.15002 0-.56995-.21997-1.07996-.58002-1.46997-.00104-.0011-.00244-.00177-.00348-.00287 1.04785-2.9682 1.63342-6.15222 1.63342-9.47528 0-3.62006-.68701-7.07947-1.91992-10.26978v-10.50208c0-.97003-.78003-1.75-1.75-1.75h-7.32092c-4.86346-3.81702-10.9837-6.1012-17.63123-6.1012-6.20783 0-11.95111 1.99872-16.646 5.36932-.00391.00079-.00793.0011-.01184.00189-6.88 1.34998-12.09003 7.41998-12.09003 14.69 0 1.33893.17981 2.63788.51935 3.88708-.25629 1.52075-.39453 3.08112-.39453 4.67474 0 6.90613 2.46661 13.23932 6.55444 18.18774-.01898.12689-.02924.25378-.02924.39038 0 1.48004 1.19 2.67999 2.66998 2.67999h.58002c.26001 2.28003 2.03998 4.11005 4.27997 4.46002.21502 2.90165 2.62336 5.15002 5.55005 5.15002h.03998l1.78999-.00997c1.85999-.01001 3.5-.94 4.5-2.35999.00189-.00256.00323-.00537.00513-.00793.88452.0835 1.77649.14111 2.68274.14111 5.98602 0 11.53369-1.86816 16.13281-5.02386.00385.00287.00537.00793.00934.01068.08002.06.17999.08997.28998.08997h3.77002c.27002 0 .5-.21997.5-.5v-1.41998h4.71997c1.19 0 2.15002-.97003 2.15002-2.15002 0-1.19-.96002-2.14996-2.15002-2.14996h-2.79926c1.05505-1.3681 1.97516-2.8399 2.76813-4.39001h.03113zm0-1h-4.71997v-2.29999h4.71997c.64001 0 1.15002.51996 1.15002 1.14996s-.51001 1.15003-1.15002 1.15003zm.28003-32.87v18.39001c0 .40997-.33002.75-.75.75h-18.40003c-.40997 0-.73999-.34003-.73999-.75v-18.39001c0-.41998.33002-.75.73999-.75h18.40002c.41999 0 .75001.33002.75001.75zm-9.77619-1.75h-9.37384c-.95996 0-1.73999.77997-1.73999 1.75v18.39001c0 .95996.78003 1.75 1.73999 1.75h18.40002c.96997 0 1.75-.79004 1.75-1.75v-4.67328c.59619 2.25348.91992 4.6167.91992 7.05511 0 3.12152-.52765 6.11981-1.48712 8.91956-.00104-.00037-.00177-.00104-.00281-.0014-.21997-.08002-.46002-.12-.71002-.12h-4.71997v-1.42999c0-.27002-.22998-.5-.5-.5h-3.77001c-.27997 0-.5.22998-.5.5v1l-9.65997 1.73999c-1 .16998-1.72003 1.02997-1.72003 2.04999v.67999h-.94c-1.02914 0-2.00911.65068-2.34998 1.72998l-1.42999.01001c-1.37136 0-2.52002 1.11683-2.52002 2.54004l.03003 8.14996c0 .78864-.18958 1.5274-.53839 2.17645-2.87622-.33679-5.61261-1.12927-8.15271-2.28198 1.42505-.78113 2.45154-2.21814 2.64111-3.90448h.57995c1.47003 0 2.67004-1.19995 2.67004-2.67999 0-.88995-.44-1.69-1.12006-2.16998.68005-.47998 1.12006-1.27997 1.12006-2.16998 0-1.29999-.94-2.39001-2.18005-2.63.12006-3.53003 1.62006-6.85999 4.27002-9.41998 3.47998-3.38 5.08002-8.09003 4.39002-12.95001-.98013-6.95586-7.1178-12.77002-14.79999-12.77002-.21808 0-.44458.00952-.66351.01898 4.20697-2.5943 9.1463-4.11017 14.44135-4.11017 5.93389-.00001 11.41942 1.9035 15.92595 5.10119zm-13.76379 37.82001c0-.81554.65151-1.46002 1.44995-1.46002h.94c0 .29625 0 3.01073 0 2.91003h-.94c-.81936 0-1.44995-.6705-1.44995-1.45001zm3.38995-3.14002c0-.52002.38-.97998.89001-1.07001l9.49-1.70001v11.81l-9.48999-1.69995c-.51001-.09003-.89001-.55005-.89001-1.07001-.00001-2.27387-.00001-4.97405-.00001-6.27002zm-26.64996 2.08002c0-.92004.75-1.67004 1.66998-1.67004h11.29999c.92004 0 1.67004.75 1.67004 1.67004 0 .91998-.75 1.66998-1.67004 1.66998h-11.29999c-.91998 0-1.66998-.75-1.66998-1.66998zm5.79998-2.67004-3.45001-16.88996 1.29999-1.29004 1.48004 1.48004c.08997.09998.21997.14996.34998.14996s.26001-.04999.35999-.14996l1.48004-1.48004 1.47998 1.48004c.09003.09998.21997.14996.34998.14996.14001 0 .26001-.04999.36005-.14996l1.47998-1.48004 1.28998 1.29004-3.44995 16.88995h-3.03005zm1.52002-34.09998c7.18113 0 12.89518 5.43263 13.81 11.91004.64997 4.53997-.85003 8.93994-4.10004 12.08996-2.82996 2.73999-4.44995 6.31-4.57996 10.09998h-2.60003l3.46002-16.94995c.03998-.17004-.01001-.34003-.13-.45001l-1.84003-1.84003c-.08997-.09998-.21997-.14996-.34998-.14996s-.26001.04999-.34998.14996l-1.49005 1.48004-1.47998-1.48004c-.08997-.09998-.21997-.14996-.34998-.14996s-.26001.04999-.35004.14996l-1.48999 1.48004-1.47998-1.48004c-.09003-.09998-.22003-.14996-.35004-.14996-.13995 0-.25995.04999-.35999.14996l-1.83002 1.84003c-.12.10999-.16998.27997-.13995.45001l3.45996 16.94995h-2.59998c-.13-3.77997-1.75-7.35999-4.59003-10.12-2.72995-2.64996-4.23996-6.20996-4.23996-10.00995 0-7.71002 6.27002-13.97003 13.97003-13.97003zm-13.70947 19.99109c.76996 1.74963 1.86975 3.33923 3.27948 4.70892 2.64996 2.58002 4.16998 5.91998 4.28998 9.44-1.23999.23999-2.17999 1.33002-2.17999 2.63 0 .89996.44 1.69 1.12 2.16998-.25653.17761-.48297.41437-.66187.67993-3.72876-4.70647-5.98334-10.62968-5.98334-17.08806 0-.85882.05334-1.70398.13574-2.54077zm6.38947 21.1189c0-.91998.75-1.66998 1.66998-1.66998h11.29999c.92004 0 1.67004.75 1.67004 1.66998 0 .92999-.75 1.67999-1.67004 1.67999-2.44007 0-7.34262 0-11.29999 0-.91998 0-1.66998-.75-1.66998-1.67999zm3.25 2.67999h8.13c-.28003 1.98004-2 3.53003-4.06 3.53003-2.05005 0-3.78003-1.54999-4.07-3.53003zm13.97998 7.11005c-.82001.90997-2 1.47998-3.32001 1.48999l-1.79999.01001c-2.35453.019-4.32509-1.75193-4.57001-4.09003.3092-.01001.61841-.04999.90765-.11969 2.71515 1.34753 5.66913 2.28143 8.784 2.70776-.00061.00061-.00103.00135-.00164.00196zm1.72039-.83088c.3197-.69971.48963-1.45947.48963-2.26917l-.03003-8.14995c0-.82312.6549-1.54004 1.53003-1.54004l1.32996-.01001c.14001 1.22003 1.18005 2.18005 2.44 2.18005h.94v.67999c0 1.01996.72003 1.88 1.72003 2.04999l9.65998 1.73999v.3205c-4.50677 3.19763-9.99884 5.09271-15.93213 5.09271-.72376 0-1.43793-.03851-2.14747-.09406zm21.84962-4.82916h-2.77002c0-12.34124 0-8.36595 0-14.83997h2.77002c-.01835 6.16828-.00001 14.72534 0 14.83997zm6.86999-3.07001c0 .63-.51001 1.15002-1.15002 1.15002h-4.71997v-2.29999h4.71997c.64001.00001 1.15002.51002 1.15002 1.14997zm-5.22784-2.14996h-.64215v-4.39001h3.55365c-.8335 1.55828-1.80158 3.03118-2.9115 4.39001z" fill="#d60c0c" data-original="#2a44e2" style="" class=""/></g></g></g></g></svg>
