<svg xmlns="http://www.w3.org/2000/svg" width="512" height="512" viewBox="0 0 68 68"><g xmlns="http://www.w3.org/2000/svg"><path d="M60.112 13.802v18.394a1.25 1.25 0 01-1.249 1.249H40.458a1.24 1.24 0 01-1.238-1.249V13.802a1.24 1.24 0 011.238-1.248h18.405a1.25 1.25 0 011.249 1.248z" fill="#00000000" data-original="#ffffff"/><path d="M57.359 22.999a7.695 7.695 0 01-7.693 7.693c-4.257 0-7.703-3.446-7.703-7.693 0-4.246 3.446-7.693 7.703-7.693A7.695 7.695 0 0157.359 23z" fill="#00000000" data-original="#ffffff"/><circle cx="46.541" cy="24.628" fill="#d60c0c" r="1.43" data-original="#8f9fff"/><circle cx="52.783" cy="24.628" fill="#d60c0c" r="1.43" data-original="#8f9fff"/><path d="M50.66 19.288v1.75a.998.998 0 11-1.996 0v-1.75a.998.998 0 111.996 0z" fill="#d60c0c" data-original="#8f9fff"/><g fill="#fff"><path d="M34.439 23.885c.698 4.919-1.07 9.44-4.25 12.518-2.79 2.698-4.433 6.363-4.433 10.243H14.499c0-3.888-1.66-7.55-4.45-10.26a14.409 14.409 0 01-4.384-10.374c0-8.54 7.396-15.35 16.134-14.375 6.443.72 11.73 5.83 12.64 12.248zM27.948 48.818c0 1.199-.972 2.171-2.171 2.171h-11.3a2.171 2.171 0 010-4.342h11.3c1.199 0 2.171.972 2.171 2.17z" fill="#00000000" data-original="#ffffff"/><path d="M27.948 53.16c0 1.2-.972 2.172-2.171 2.172h-11.3a2.171 2.171 0 010-4.343h11.3c1.199 0 2.171.972 2.171 2.171z" fill="#00000000" data-original="#ffffff"/></g><path d="M15.52 55.332a4.608 4.608 0 009.214 0z" fill="#d60c0c" data-original="#8f9fff"/><path d="M50.34 43.367v13.007l-10.075-1.808a1.583 1.583 0 01-1.305-1.556v-6.278c0-.763.552-1.426 1.305-1.557z" fill="#00000000" data-original="#ffffff"/><path d="M50.339 41.951h3.766V57.79h-3.766z" fill="#d60c0c" data-original="#8f9fff"/><g fill="#fff"><path d="M60.98 45.528c0 .91-.738 1.648-1.648 1.648h-5.23v-3.297h5.23c.91 0 1.648.738 1.648 1.649zM60.98 54.214c0 .91-.738 1.648-1.648 1.648h-5.23v-3.296h5.23c.91 0 1.648.738 1.648 1.648z" fill="#00000000" data-original="#ffffff"/></g><g><path d="M38.96 47.917v3.907h-1.437a1.952 1.952 0 110-3.907z" fill="#d60c0c" data-original="#8f9fff"/><g fill="#2a44e2"><path d="M65.17 30.765c.077.667 1.072.535.993-.117a31.22 31.22 0 00-.744-4.03.5.5 0 00-.97.246c.323 1.271.565 2.584.722 3.9zM66.018 35.062H66a.5.5 0 00-.5.481 32.35 32.35 0 01-3.633 13.701.5.5 0 10.887.463A33.366 33.366 0 0066.5 35.58a.5.5 0 00-.482-.517zM2.557 36.537a.5.5 0 10-.996.077c.62 8.013 4.336 15.813 10.195 21.4a.5.5 0 10.689-.723C6.763 51.87 3.16 44.307 2.557 36.537zM1.976 33.29H2a.5.5 0 00.499-.476 29.29 29.29 0 01.442-3.878.5.5 0 00-.984-.18 30.141 30.141 0 00-.456 4.01.5.5 0 00.475.524zM18.804 7.67a33.068 33.068 0 014.963-2.213.5.5 0 10-.332-.944 34.052 34.052 0 00-5.113 2.282.5.5 0 00.482.875zM28.185 4.236c7.317-1.496 14.78-.517 21.017 2.76a.5.5 0 00.465-.886c-6.44-3.382-14.137-4.395-21.683-2.854a.5.5 0 10.201.98zM49.67 31.196c4.51 0 8.19-3.68 8.19-8.2 0-4.51-3.68-8.19-8.19-8.19-4.53 0-8.21 3.68-8.21 8.19 0 4.52 3.68 8.2 8.21 8.2zm0-15.39c3.96 0 7.19 3.23 7.19 7.19 0 3.97-3.23 7.2-7.19 7.2-3.98 0-7.21-3.23-7.21-7.2 0-3.96 3.23-7.19 7.21-7.19z" fill="#d60c0c" data-original="#2a44e2"/><path d="M59.33 47.676a2.15 2.15 0 001.57-3.62l-.003-.003a28.397 28.397 0 001.633-9.475c0-3.62-.687-7.08-1.92-10.27V13.806c0-.97-.78-1.75-1.75-1.75h-7.32a28.466 28.466 0 00-17.632-6.1c-6.208 0-11.951 1.998-16.646 5.368l-.012.002c-6.88 1.35-12.09 7.42-12.09 14.69 0 1.34.18 2.638.52 3.887a28.1 28.1 0 00-.395 4.675c0 6.906 2.466 13.24 6.554 18.188a2.672 2.672 0 002.64 3.07h.581a5.125 5.125 0 004.28 4.46 5.556 5.556 0 005.55 5.15h.04l1.79-.01a5.53 5.53 0 004.5-2.36l.005-.008c.885.084 1.777.142 2.683.142 5.986 0 11.534-1.869 16.133-5.024.004.003.005.008.009.01.08.06.18.09.29.09h3.77c.27 0 .5-.22.5-.5v-1.42h4.72c1.19 0 2.15-.97 2.15-2.15 0-1.19-.96-2.15-2.15-2.15h-2.8a28.225 28.225 0 002.769-4.39h.031zm0-1h-4.72v-2.3h4.72a1.15 1.15 0 010 2.3zm.28-32.87v18.39c0 .41-.33.75-.75.75h-18.4c-.41 0-.74-.34-.74-.75v-18.39c0-.42.33-.75.74-.75h18.4c.42 0 .75.33.75.75zm-9.776-1.75H40.46c-.96 0-1.74.78-1.74 1.75v18.39c0 .96.78 1.75 1.74 1.75h18.4c.97 0 1.75-.79 1.75-1.75v-4.673c.596 2.254.92 4.617.92 7.055 0 3.122-.528 6.12-1.487 8.92l-.003-.002c-.22-.08-.46-.12-.71-.12h-4.72v-1.43c0-.27-.23-.5-.5-.5h-3.77c-.28 0-.5.23-.5.5v1l-9.66 1.74c-1 .17-1.72 1.03-1.72 2.05v.68h-.94c-1.03 0-2.01.651-2.35 1.73l-1.43.01a2.53 2.53 0 00-2.52 2.54l.03 8.15c0 .789-.19 1.528-.538 2.177a27.425 27.425 0 01-8.153-2.282c1.425-.781 2.451-2.218 2.641-3.905h.58c1.47 0 2.67-1.2 2.67-2.68 0-.89-.44-1.69-1.12-2.17.68-.48 1.12-1.28 1.12-2.17 0-1.3-.94-2.39-2.18-2.63.12-3.53 1.62-6.86 4.27-9.42 3.48-3.38 5.08-8.09 4.39-12.95-.98-6.955-7.118-12.77-14.8-12.77-.218 0-.445.01-.663.02a27.422 27.422 0 0114.44-4.11c5.935 0 11.42 1.903 15.927 5.1zM36.07 49.876c0-.815.652-1.46 1.45-1.46h.94v2.91h-.94c-.82 0-1.45-.67-1.45-1.45zm3.39-3.14c0-.52.38-.98.89-1.07l9.49-1.7v11.81l-9.49-1.7c-.51-.09-.89-.55-.89-1.07v-6.27zm-26.65 2.08c0-.92.75-1.67 1.67-1.67h11.3c.92 0 1.67.75 1.67 1.67 0 .92-.75 1.67-1.67 1.67h-11.3c-.92 0-1.67-.75-1.67-1.67zm5.8-2.67l-3.45-16.89 1.3-1.29 1.48 1.48c.09.1.22.15.35.15s.26-.05.36-.15l1.48-1.48 1.48 1.48c.09.1.22.15.35.15.14 0 .26-.05.36-.15l1.48-1.48 1.29 1.29-3.45 16.89h-3.03zm1.52-34.1c7.181 0 12.895 5.433 13.81 11.91.65 4.54-.85 8.94-4.1 12.09-2.83 2.74-4.45 6.31-4.58 10.1h-2.6l3.46-16.95a.461.461 0 00-.13-.45l-1.84-1.84c-.09-.1-.22-.15-.35-.15s-.26.05-.35.15l-1.49 1.48-1.48-1.48c-.09-.1-.22-.15-.35-.15s-.26.05-.35.15l-1.49 1.48-1.48-1.48a.47.47 0 00-.35-.15c-.14 0-.26.05-.36.15l-1.83 1.84a.49.49 0 00-.14.45l3.46 16.95h-2.6c-.13-3.78-1.75-7.36-4.59-10.12a13.853 13.853 0 01-4.24-10.01c0-7.71 6.27-13.97 13.97-13.97zM6.42 32.037c.77 1.75 1.87 3.34 3.28 4.71 2.65 2.58 4.17 5.92 4.29 9.44a2.69 2.69 0 00-2.18 2.63c0 .9.44 1.69 1.12 2.17a2.588 2.588 0 00-.662.68C8.54 46.96 6.285 41.036 6.285 34.577c0-.859.053-1.704.136-2.54zm6.39 21.12c0-.92.75-1.67 1.67-1.67h11.3a1.675 1.675 0 010 3.35h-11.3c-.92 0-1.67-.75-1.67-1.68zm3.25 2.68h8.13c-.28 1.98-2 3.53-4.06 3.53-2.05 0-3.78-1.55-4.07-3.53zm13.98 7.11c-.82.91-2 1.48-3.32 1.49l-1.8.01a4.557 4.557 0 01-4.57-4.09c.31-.01.618-.05.908-.12a28.403 28.403 0 008.784 2.707l-.002.002zm1.72-.832c.32-.7.49-1.459.49-2.269l-.03-8.15c0-.823.655-1.54 1.53-1.54l1.33-.01a2.466 2.466 0 002.44 2.18h.94v.68c0 1.02.72 1.88 1.72 2.05l9.66 1.74v.32c-4.507 3.198-9.999 5.094-15.932 5.094-.724 0-1.438-.039-2.148-.095zm21.85-4.829h-2.77v-14.84h2.77c-.018 6.169 0 14.726 0 14.84zm6.87-3.07c0 .63-.51 1.15-1.15 1.15h-4.72v-2.3h4.72c.64 0 1.15.51 1.15 1.15zm-5.228-2.15h-.642v-4.39h3.554a27.22 27.22 0 01-2.912 4.39z" fill="#d60c0c" data-original="#2a44e2"/></g></g></g></svg>