<?xml version="1.0"?>
<svg xmlns="http://www.w3.org/2000/svg" xmlns:xlink="http://www.w3.org/1999/xlink" xmlns:svgjs="http://svgjs.com/svgjs" version="1.1" width="512" height="512" x="0" y="0" viewBox="0 0 67 67" style="enable-background:new 0 0 512 512" xml:space="preserve" class=""><g><g xmlns="http://www.w3.org/2000/svg"><circle cx="33.392" cy="17.771" fill="#d60c0c" r="4.032" data-original="#8f9fff" style="" class=""/><path d="m55.39143 54.14601-7.5826-21.75406c-.28279-.8113-1.04791-1.35488-1.90708-1.35488h-23.63134c-.85917 0-1.62429.54358-1.90708 1.35488l-7.5826 21.75406c-.45754 1.31266.51697 2.68435 1.90708 2.68435h38.79654c1.39011 0 2.36462-1.37169 1.90708-2.68435z" fill="#00000000" data-original="#ffffff" style="" class=""/><path d="m55.39143 54.14601-7.5826-21.75406c-.28279-.8113-1.04791-1.35488-1.90708-1.35488h-23.63134c-.85917 0-1.62429.54358-1.90708 1.35488l-7.5826 21.75406c-.45754 1.31266.51697 2.68435 1.90708 2.68435h38.79654c1.39011 0 2.36462-1.37169 1.90708-2.68435z" fill="#00000000" data-original="#ffffff" style="" class=""/><path d="m30.322 56.83h7.528v8.081h-7.528z" fill="#d60c0c" data-original="#8f9fff" style="" class=""/><g fill="#2a44e2"><path d="m44.43299 4.37343c1.50684.56738 2.98438 1.26465 4.39209 2.07129.23795.13682.54448.05576.68213-.18457.1377-.24023.05469-.54492-.18506-.68262-1.45361-.83398-2.97998-1.55371-4.53662-2.13965-.25977-.09961-.54688.03223-.64404.29199-.09766.25782.0332.54688.2915.64356z" fill="#d60c0c" data-original="#2a44e2" style="" class=""/><path d="m53.15955 8.15859c-.21924-.17383-.53223-.13281-.70215.08594-.16992.2168-.13135.53125.08594.70117 7.11182 5.56055 11.5791 13.81836 12.25634 22.65625.02002.2627.23926.46191.49805.46191.0127 0 .02588 0 .03857-.00098.27539-.02148.48145-.26172.46045-.53711-.69873-9.11718-5.30468-17.63476-12.6372-23.36718z" fill="#d60c0c" data-original="#2a44e2" style="" class=""/><path d="m2.64246 29.01113c.04688-.27148-.13525-.53027-.40723-.57813-.27051-.04492-.53076.13672-.57812.4082-1.4082 8.13867.48486 16.59375 5.19434 23.19824.09766.13672.25146.20996.40771.20996.10059 0 .20166-.03027.29004-.09277.22461-.16016.27686-.47266.1167-.69727-4.55567-6.38866-6.38623-14.5703-5.02344-22.44823z" fill="#d60c0c" data-original="#2a44e2" style="" class=""/><path d="m11.30066 11.87734c4.97461-5.19336 11.54102-8.49414 18.48975-9.29395.27441-.03223.47119-.28027.43945-.55469-.03125-.27441-.27637-.45801-.55371-.43945-7.17969.82715-13.96191 4.23535-19.09717 9.59668-.19141.19922-.18457.51563.01514.70703.1985.19048.51524.18424.70654-.01562z" fill="#d60c0c" data-original="#2a44e2" style="" class=""/><path d="m33.39814 5.37465c-15.71997 0-28.50995 12.78003-28.50995 28.48999 0 7.48999 2.90997 14.32007 7.66998 19.40991-.05718.33164-.89327 1.62144.08002 3 .46997.67004 1.21997 1.06006 2.04999 1.06006h2.57001c3.65997 2.53003 7.94 4.21997 12.56 4.80005v2.27686h-4.96869c-.27637 0-.5.22363-.5.5s.22363.5.5.5c4.86923.00118 13.60387.00009 18.47315 0 .27637 0 .5-.22363.5-.5s-.22363-.5-.5-.5h-4.97449v-2.48682c4.09003-.71008 7.89001-2.31006 11.17999-4.59009 2.98018-.21018 4.81525.60781 6.01001-1.06006.48004-.67993.60004-1.51001.33002-2.28992l-.64001-1.82996c4.16003-4.95007 6.66003-11.34009 6.66003-18.29004-.00001-15.70995-12.78004-28.48998-28.49006-28.48998zm-19.94996 50.31995c-.73497-1.03904.13778-1.89453.88-4.46997h8.96997l-.90997 5.10999c-7.3212-.20313-8.14088.46236-8.94-.64002zm31.32001.64001c-5.66469 0-4.36477 0-10.18188 0v-5.10999h9.28186zm-21.36005 0 .90002-5.10999h9.27814v5.10999c-11.71099 0-.56788 0-10.17816 0zm2.10071-11.90356h8.07746v5.79358h-9.09815l1.02002-5.78992zm1.19995-6.79004h6.8775v5.79004h-7.89746l1.01929-5.78638zm14.75867 0 .00067.00366 1.01935 5.78638h-7.90118v-5.79004zm1.20069 6.7937 1.02002 5.78992h-9.10187v-5.79358h8.08118zm1.01001 0-.00061-.00366h7.79932l.00128.00366 2.02002 5.78992h-8.79004zm-.17066-1.00366-1.02936-5.78638-.00061-.00366h6.62933c.04067.11659 2.05659 5.89485 2.02002 5.79004zm-1.20001-6.79004-.90936-5.10644h4.5c.65002 0 1.23004.41003 1.44 1.02002l1.41876 4.08643h-6.4494zm-1.02002 0h-6.70117v-5.10644h5.80188zm-7.70117 0h-6.69745l.89929-5.10644h5.79816zm-7.71747 0h-6.45941l1.42871-4.08643c.21002-.60998.79004-1.02002 1.43005-1.02002h4.50995zm-6.81067 1.00366.00128-.00366h6.63934l-.00061.00366-1.02936 5.78638h-7.61938zm-2.35999 6.79004.00128-.00366h7.79932l-.00061.00366-1.03003 5.78992h-8.78998zm2.38996 12.8999h10.73004v3.79004c-3.89002-.5-7.53003-1.83008-10.73004-3.79004zm18.26001 7.07691h-6.52997c0-.32966 0-7.2413 0-7.07691h6.52997c0 .17135 0 7.3188 0 7.07691zm1-3.50684v-3.57007c.26707 0 9.87264 0 9.35004 0-2.82001 1.72998-5.98005 2.96997-9.35004 3.57007zm16.57001-6.59009c.34965.96672-.38962 2.02002-1.42999 2.02002-.22446 0-7.82186 0-7.70001 0l-.90997-5.10999h8.95996c.03667.10478.66868 1.91043.63 1.79993zm-.08002-3.27002-2.54846-7.27686c-.00543-.0155-.00909-.03101-.01593-.04565-.12573-.36179-3.86985-11.13556-3.99561-11.49744-.34998-1.01001-1.31-1.69006-2.38-1.69006-8.98121 0-18.79151 0-23.62995 0-1.07001 0-2.03003.68005-2.38 1.69006l-1.64001 4.70007c-.02002.03992-.03003.07996-.04004.11987l-2.32996 6.69006c-.01001.02991-.02002.06995-.03003.09998-.03523.10098-2.95597 8.47316-2.91998 8.37-4.37-4.87-7.03998-11.29993-7.03998-18.33997 0-15.16003 12.33996-27.48999 27.50995-27.48999 15.16003 0 27.49005 12.32996 27.49005 27.48999 0 6.50001-2.26001 12.46998-6.05005 17.17994z" fill="#d60c0c" data-original="#2a44e2" style="" class=""/><g><path d="m37.61756 10.45351c-.23877-.13965-.54492-.05664-.68311.18262l-.80225 1.38965c-.13818.23926-.05615.54492.18311.68262.23688.13831.54407.05737.68311-.18262l.80225-1.38965c.13818-.23926.05615-.54492-.18311-.68262z" fill="#d60c0c" data-original="#000000" style="" class=""/><path d="m39.13807 15.03164 1.38916-.80273c.23926-.1377.32129-.44336.18311-.68262s-.44531-.32324-.68311-.18262l-1.38916.80273c-.23926.1377-.32129.44336-.18311.68262.13922.24023.44666.32068.68311.18262z" fill="#d60c0c" data-original="#000000" style="" class=""/><path d="m41.34217 17.2709h-1.604c-.27637 0-.5.22363-.5.5s.22363.5.5.5h1.604c.27637 0 .5-.22363.5-.5s-.22364-.5-.5-.5z" fill="#d60c0c" data-original="#000000" style="" class=""/><path d="m40.52723 21.31386-1.38916-.80273c-.23877-.13965-.54541-.05566-.68311.18262-.13818.23926-.05615.54492.18311.68262l1.38916.80273c.23688.13831.54407.05737.68311-.18262.13817-.23926.05614-.54492-.18311-.68262z" fill="#d60c0c" data-original="#000000" style="" class=""/><path d="m36.99842 23.01699c-.13867-.23926-.44482-.32227-.68311-.18262-.23926.1377-.32129.44336-.18311.68262l.80225 1.38965c.13922.24023.44666.32068.68311.18262.23926-.1377.32129-.44336.18311-.68262z" fill="#d60c0c" data-original="#000000" style="" class=""/><path d="m33.39246 23.6166c-.27637 0-.5.22363-.5.5v1.60449c0 .27637.22363.5.5.5s.5-.22363.5-.5v-1.60449c0-.27637-.22363-.5-.5-.5z" fill="#d60c0c" data-original="#000000" style="" class=""/><path d="m30.46961 22.83437c-.23975-.13965-.54541-.05664-.68311.18262l-.80225 1.38965c-.13818.23926-.05615.54492.18311.68262.23688.13831.54407.05737.68311-.18262l.80225-1.38965c.13818-.23926.05614-.54492-.18311-.68262z" fill="#d60c0c" data-original="#000000" style="" class=""/><path d="m27.64685 20.51113-1.38916.80273c-.23926.1377-.32129.44336-.18311.68262.13922.24023.44666.32068.68311.18262l1.38916-.80273c.23926-.1377.32129-.44336.18311-.68262-.13867-.23828-.4458-.32227-.68311-.18262z" fill="#d60c0c" data-original="#000000" style="" class=""/><path d="m27.54675 17.7709c0-.27637-.22363-.5-.5-.5h-1.604c-.27637 0-.5.22363-.5.5s.22363.5.5.5h1.604c.27637 0 .5-.22364.5-.5z" fill="#d60c0c" data-original="#000000" style="" class=""/><path d="m28.14685 14.1664-1.38916-.80273c-.23975-.14063-.54443-.05664-.68311.18262-.13818.23926-.05615.54492.18311.68262l1.38916.80273c.23688.13831.54407.05737.68311-.18262.13818-.23926.05615-.54492-.18311-.68262z" fill="#d60c0c" data-original="#000000" style="" class=""/><path d="m29.85047 10.63613c-.13867-.23926-.4458-.32227-.68311-.18262-.23926.1377-.32129.44336-.18311.68262l.80225 1.38965c.13922.24023.44666.32068.68311.18262.23926-.1377.32129-.44336.18311-.68262z" fill="#d60c0c" data-original="#000000" style="" class=""/><path d="m33.39246 9.32168c-.27637 0-.5.22363-.5.5v1.60449c0 .27637.22363.5.5.5s.5-.22363.5-.5v-1.60449c0-.27637-.22363-.5-.5-.5z" fill="#d60c0c" data-original="#000000" style="" class=""/></g><path d="m33.38819 13.23464c-2.49005 0-4.53003 2.03992-4.53003 4.53992s2.03998 4.53003 4.53003 4.53003c2.5 0 4.53998-2.03003 4.53998-4.53003s-2.03998-4.53992-4.53998-4.53992zm0 8.06995c-1.94 0-3.53003-1.58997-3.53003-3.53003 0-1.94995 1.59003-3.53992 3.53003-3.53992 1.94995 0 3.53998 1.58997 3.53998 3.53992 0 1.94006-1.59003 3.53003-3.53998 3.53003z" fill="#d60c0c" data-original="#2a44e2" style="" class=""/><path d="m51.97156 33.70058-.56592-1.62305c-.09082-.26074-.37744-.39844-.63672-.30664-.26074.09082-.39844.37597-.30762.63672l.56592 1.62305c.07178.20605.26563.33496.47217.33496.05469 0 .11035-.00879.16455-.02832.26075-.09082.39844-.37598.30762-.63672z" fill="#d60c0c" data-original="#2a44e2" style="" class=""/><path d="m55.05359 42.54238-2.26758-6.50586c-.09033-.25977-.375-.40039-.63672-.30664-.26074.09082-.39844.37598-.30762.63672l2.26758 6.50586c.07178.20605.26514.33496.47217.33496.05469 0 .10986-.00879.16455-.02832.26075-.09082.39844-.37598.30762-.63672z" fill="#d60c0c" data-original="#2a44e2" style="" class=""/><path d="m16.16101 35.33339c-.26172-.0918-.54541.0459-.63672.30762l-2.67334 7.6709c-.09082.26074.04688.54492.30762.63574.05469.01953.10986.02832.16455.02832.20703 0 .40039-.12891.47217-.33594l2.67334-7.6709c.09082-.26074-.04688-.54492-.30762-.63574z" fill="#d60c0c" data-original="#2a44e2" style="" class=""/><path d="m17.4032 31.7709c-.2583-.09277-.5459.0459-.63672.30664l-.56592 1.62305c-.09082.26074.04688.5459.30762.63672.0542.01953.10986.02832.16455.02832.20654 0 .40039-.12891.47217-.33496l.56592-1.62305c.09082-.26075-.04688-.5459-.30762-.63672z" fill="#d60c0c" data-original="#2a44e2" style="" class=""/></g></g></g></svg>
