<svg xmlns="http://www.w3.org/2000/svg" width="512" height="512" viewBox="0 0 67 67"><g xmlns="http://www.w3.org/2000/svg"><circle cx="33.392" cy="17.771" fill="#d60c0c" r="4.032" data-original="#8f9fff"/><path d="M55.391 54.146L47.81 32.392a2.02 2.02 0 00-1.907-1.355H22.27a2.02 2.02 0 00-1.907 1.355l-7.582 21.754a2.02 2.02 0 001.907 2.684h38.796a2.02 2.02 0 001.907-2.684z" fill="#00000000" data-original="#ffffff"/><path d="M55.391 54.146L47.81 32.392a2.02 2.02 0 00-1.907-1.355H22.27a2.02 2.02 0 00-1.907 1.355l-7.582 21.754a2.02 2.02 0 001.907 2.684h38.796a2.02 2.02 0 001.907-2.684z" fill="#00000000" data-original="#ffffff"/><path d="M30.322 56.83h7.528v8.081h-7.528z" fill="#d60c0c" data-original="#8f9fff"/><g fill="#2a44e2"><path d="M44.433 4.373a30.434 30.434 0 014.392 2.072.5.5 0 10.497-.867 31.309 31.309 0 00-4.536-2.14.497.497 0 00-.645.292.5.5 0 00.292.643zM53.16 8.159a.5.5 0 10-.616.787c7.111 5.56 11.578 13.818 12.256 22.656a.5.5 0 00.498.462l.038-.001a.5.5 0 00.46-.537c-.698-9.117-5.304-17.635-12.636-23.367zM2.642 29.011a.501.501 0 00-.407-.578.504.504 0 00-.578.408C.25 36.98 2.142 45.435 6.851 52.04a.5.5 0 00.815-.58C3.11 45.071 1.28 36.89 2.642 29.011zM11.3 11.877c4.975-5.193 11.542-8.494 18.49-9.294a.5.5 0 00.44-.554.507.507 0 00-.554-.44c-7.18.827-13.962 4.236-19.097 9.597a.5.5 0 10.722.691z" fill="#d60c0c" data-original="#2a44e2"/><path d="M33.398 5.375c-15.72 0-28.51 12.78-28.51 28.49 0 7.49 2.91 14.32 7.67 19.41-.057.331-.893 1.621.08 3 .47.67 1.22 1.06 2.05 1.06h2.57c3.66 2.53 7.94 4.22 12.56 4.8v2.277H24.85a.5.5 0 100 1h18.474a.5.5 0 100-1h-4.975v-2.487a28.05 28.05 0 0011.18-4.59c2.98-.21 4.815.607 6.01-1.06.48-.68.6-1.51.33-2.29l-.64-1.83a28.349 28.349 0 006.66-18.29c0-15.71-12.78-28.49-28.49-28.49zm-19.95 50.32c-.735-1.04.138-1.895.88-4.47h8.97l-.91 5.11c-7.321-.204-8.14.462-8.94-.64zm31.32.64H34.586v-5.11h9.282zm-21.36 0l.9-5.11h9.278v5.11H23.408zm2.1-11.904h8.078v5.794h-9.098l1.02-5.79zm1.2-6.79h6.878v5.79H25.69l1.02-5.786zm14.76 0v.004l1.02 5.786h-7.902v-5.79zm1.2 6.794l1.02 5.79h-9.102V44.43h8.081zm1.01 0v-.004h7.799l.001.004 2.02 5.79h-8.79zm-.17-1.004l-1.03-5.786v-.004h6.629l2.02 5.79zm-1.2-6.79l-.91-5.106h4.5c.65 0 1.23.41 1.44 1.02l1.419 4.086h-6.45zm-1.02 0h-6.702v-5.106h5.802zm-7.702 0H26.89l.9-5.106h5.797zm-7.717 0h-6.46l1.43-4.086c.21-.61.79-1.02 1.43-1.02h4.51zm-6.81 1.004v-.004h6.64v.004l-1.03 5.786h-7.62zm-2.36 6.79v-.004h7.8v.004l-1.03 5.79h-8.79zm2.39 12.9h10.73v3.79a27.17 27.17 0 01-10.73-3.79zm18.26 7.077h-6.53v-7.077h6.53v7.077zm1-3.507v-3.57h9.35a26.908 26.908 0 01-9.35 3.57zm16.57-6.59c.349.966-.39 2.02-1.43 2.02h-7.7l-.91-5.11h8.96l.63 1.8zm-.08-3.27l-2.55-7.277c-.005-.016-.008-.031-.015-.046l-3.996-11.497a2.522 2.522 0 00-2.38-1.69h-23.63c-1.07 0-2.03.68-2.38 1.69l-1.64 4.7c-.02.04-.03.08-.04.12l-2.33 6.69-.03.1-2.92 8.37c-4.37-4.87-7.04-11.3-7.04-18.34 0-15.16 12.34-27.49 27.51-27.49 15.16 0 27.49 12.33 27.49 27.49 0 6.5-2.26 12.47-6.05 17.18z" fill="#d60c0c" data-original="#2a44e2"/><path d="M37.618 10.454a.499.499 0 00-.684.182l-.802 1.39a.5.5 0 10.866.5l.803-1.39a.5.5 0 00-.183-.682zM39.138 15.032l1.39-.803a.5.5 0 10-.5-.865l-1.39.802a.5.5 0 10.5.866zM41.342 17.27h-1.604a.5.5 0 100 1h1.604a.5.5 0 100-1zM40.527 21.314l-1.389-.803a.5.5 0 10-.5.865l1.39.803a.5.5 0 10.5-.865zM36.998 23.017a.499.499 0 10-.866.5l.802 1.39a.5.5 0 00.867-.5zM33.392 23.617a.5.5 0 00-.5.5v1.604a.5.5 0 101 0v-1.604a.5.5 0 00-.5-.5zM30.47 22.834a.498.498 0 00-.683.183l-.803 1.39a.5.5 0 10.866.5l.803-1.39a.5.5 0 00-.183-.683zM27.647 20.511l-1.39.803a.5.5 0 10.5.865l1.39-.803a.5.5 0 10-.5-.865zM27.547 17.77a.5.5 0 00-.5-.5h-1.604a.5.5 0 100 1h1.604a.5.5 0 00.5-.5zM28.147 14.166l-1.39-.802a.5.5 0 10-.5.865l1.39.803a.5.5 0 10.5-.866zM29.85 10.636a.5.5 0 10-.866.5l.803 1.39a.5.5 0 00.866-.5zM33.392 9.322a.5.5 0 00-.5.5v1.604a.5.5 0 101 0V9.822a.5.5 0 00-.5-.5z" fill="#d60c0c" data-original="#000000"/><path d="M33.388 13.235c-2.49 0-4.53 2.04-4.53 4.54s2.04 4.53 4.53 4.53c2.5 0 4.54-2.03 4.54-4.53s-2.04-4.54-4.54-4.54zm0 8.07c-1.94 0-3.53-1.59-3.53-3.53 0-1.95 1.59-3.54 3.53-3.54 1.95 0 3.54 1.59 3.54 3.54 0 1.94-1.59 3.53-3.54 3.53zM51.972 33.7l-.566-1.622a.5.5 0 10-.945.33l.566 1.623a.5.5 0 00.945-.33zM55.054 42.542l-2.268-6.505a.5.5 0 00-.944.33l2.267 6.505a.5.5 0 10.945-.33zM16.161 35.333a.498.498 0 00-.637.308l-2.673 7.67a.499.499 0 10.944.329l2.674-7.67a.499.499 0 00-.308-.637zM17.403 31.77a.499.499 0 00-.637.308l-.565 1.623a.5.5 0 00.944.33l.566-1.623a.5.5 0 00-.308-.637z" fill="#d60c0c" data-original="#2a44e2"/></g></g></svg>