<?xml version="1.0"?>
<svg xmlns="http://www.w3.org/2000/svg" xmlns:xlink="http://www.w3.org/1999/xlink" xmlns:svgjs="http://svgjs.com/svgjs" version="1.1" width="512" height="512" x="0" y="0" viewBox="0 0 67 67" style="enable-background:new 0 0 512 512" xml:space="preserve" class=""><g><g xmlns="http://www.w3.org/2000/svg"><path d="m36.07447 48.8314c-.0098 7.57492-6.56692 9.26807-14.66051 9.26807-8.09365-.0098-14.65078-1.69315-14.65078-9.26807s6.56692-23.06734 14.66057-23.06734c8.09359-.00001 14.65072 15.49241 14.65072 23.06734z" fill="#00000000" data-original="#ffffff" style="" class=""/><path d="m28.70984 15.49742c.04711 3.53201-.98864 6.69361-3.55147 9.33286h-7.47828c-2.80529-2.59453-3.77669-5.77313-3.55147-9.33286 1.13375.06755 1.17129 1.39654 2.36514 1.39654 1.22386 0 1.22386-1.40406 2.45524-1.40406 1.23133 0 1.23133 1.40406 2.46271 1.40406s1.23138-1.40406 2.46276-1.40406c1.23133 0 1.23133 1.40406 2.46271 1.40406 1.20131 0 1.23888-1.32899 2.37266-1.39654z" fill="#00000000" data-original="#ffffff" style="" class=""/><path d="m29.62635 26.77559c0 1.07438-.87095 1.94532-1.94532 1.94532h-12.79794c-1.07437 0-1.94532-.87095-1.94532-1.94532 0-1.07437.87095-1.94532 1.94532-1.94532h12.79794c1.07437 0 1.94532.87095 1.94532 1.94532z" fill="#d60c0c" data-original="#8f9fff" style="" class=""/><g fill="#fff"><circle cx="21.414" cy="42.871" r="6.185" fill="#00000000" data-original="#ffffff" style="" class=""/><path d="m25.134 40.718h34.517v16.378h-34.517z" fill="#00000000" data-original="#ffffff" style="" class=""/><path d="m55.80191 57.09556h-26.81826c0-2.12601-1.72347-3.84949-3.84949-3.84949v-8.67855c2.12601 0 3.84949-1.72348 3.84949-3.84949h26.81826c0 2.12601 1.72348 3.84949 3.84949 3.84949v8.67855c-2.12602 0-3.84949 1.72347-3.84949 3.84949z" fill="#00000000" data-original="#ffffff" style="" class=""/></g><path d="m35.36136 48.42253c0 1.22736-.99259 2.22002-2.20933 2.22002-1.22736 0-2.21995-.99265-2.21995-2.22002 0-1.21674.99259-2.20933 2.21995-2.20933 1.21674 0 2.20933.99258 2.20933 2.20933z" fill="#d60c0c" data-original="#8f9fff" style="" class=""/><path d="m54.06059 48.42253c0 1.22736-.99259 2.22002-2.20933 2.22002-1.22743 0-2.22001-.99265-2.22001-2.22002 0-1.21674.99258-2.20933 2.22001-2.20933 1.21674 0 2.20933.99258 2.20933 2.20933z" fill="#d60c0c" data-original="#8f9fff" style="" class=""/><g fill="#fff"><path d="m42.39278 48.90444c-1.0141 0-1.84041-.82162-1.84041-1.83571 0-1.01413.82631-1.84044 1.84041-1.84044 1.01413 0 1.84041.82631 1.84041 1.84044" fill="#00000000" data-original="#ffffff" style="" class=""/><path d="m42.39278 48.90444c1.01413 0 1.84041.82631 1.84041 1.84041 0 1.01413-.82629 1.84044-1.84041 1.84044-1.0141 0-1.84041-.82632-1.84041-1.84044" fill="#00000000" data-original="#ffffff" style="" class=""/><path d="m42.393 45.228v-.786" fill="#00000000" data-original="#ffffff" style="" class=""/><path d="m42.393 53.371v-.786" fill="#00000000" data-original="#ffffff" style="" class=""/></g><path d="m59.59731 15.33643v2.16807c0 3.51949-.89444 6.92231-2.52779 9.91681-1.62362 3.00417-3.99587 5.60008-6.94177 7.51536l-2.01253 1.30282-2.01247-1.30282c-5.91121-3.83061-9.46962-10.39319-9.46962-17.43216v-2.16807c2.56672 0 4.63758-2.07086 4.63758-4.63758h13.67935c-.00001 2.56671 2.08059 4.63757 4.64725 4.63757z" fill="#00000000" data-original="#ffffff" style="" class=""/><g><path d="m53.04445 21.12118c0 2.55698-2.06113 4.61811-4.60838 4.61811-2.55698 0-4.61812-2.06113-4.61812-4.61811 0-2.54725 2.06113-4.60839 4.61812-4.60839 2.54725.00001 4.60838 2.06114 4.60838 4.60839z" fill="#d60c0c" data-original="#8f9fff" style="" class=""/></g><g fill="#2a44e2"><path d="m15.36035 7.31739c.22559-.15918.2793-.47119.12012-.69678-.16113-.22656-.47461-.27783-.69629-.11963-8.63184 6.09619-13.78418 16.01807-13.78418 26.54004 0 .99805.05078 2.03857.15137 3.09326.02803.28571.28818.48051.5459.4502.27441-.02588.47656-.27002.4502-.54492-.09767-1.02344-.14747-2.03223-.14747-2.99854 0-10.19775 4.99512-19.81397 13.36035-25.72363z" fill="#d60c0c" data-original="#2a44e2" style="" class=""/><path d="m20.44043 4.39453c1.95215-.89209 4.00098-1.58447 6.08887-2.05762.26953-.06104.43848-.3291.37695-.59814s-.32813-.44092-.59766-.37744c-2.15527.48828-4.26855 1.20313-6.28418 2.12402-.25098.11475-.36133.41113-.24707.6626.11467.25066.41138.3615.66309.24658z" fill="#d60c0c" data-original="#2a44e2" style="" class=""/><path d="m62.95508 19.33448c-.11719-.25098-.41699-.35742-.66504-.24121-.25.11719-.3584.41504-.24121.66504 1.95801 4.18652 2.95117 8.65576 2.95117 13.28271 0 3.09033-.4541 6.15527-1.34863 9.11084-.19155.63305.76507.92322.95703.29004.92383-3.04981 1.3916-6.2124 1.3916-9.40088 0-4.77441-1.02441-9.38623-3.04492-13.70654z" fill="#d60c0c" data-original="#2a44e2" style="" class=""/><path d="m57.99023 59.90967h-3.87598c-.27637 0-.5.22363-.5.5s.22363.5.5.5h3.87598c.27637 0 .5-.22363.5-.5s-.22363-.5-.5-.5z" fill="#d60c0c" data-original="#2a44e2" style="" class=""/><path d="m51.69141 59.90967h-1.42773c-.27637 0-.5.22363-.5.5s.22363.5.5.5h1.42773c.27637 0 .5-.22363.5-.5s-.22364-.5-.5-.5z" fill="#d60c0c" data-original="#2a44e2" style="" class=""/><path d="m32.11914 64.65234c-3.14355-.13574-6.23535-.7373-9.18848-1.78808-.25977-.09033-.54688.04346-.63867.30371-.09277.26025.04297.5459.30273.63867 3.04785 1.08398 6.2373 1.70507 9.48145 1.84472.00684.00049.01465.00049.02148.00049.2666 0 .48828-.20996.5-.47852.01173-.27587-.20214-.50927-.47851-.52099z" fill="#d60c0c" data-original="#2a44e2" style="" class=""/><path d="m20.38867 61.83301c-.9834-.4502-1.95508-.95703-2.8877-1.50586-.2373-.14063-.54395-.06201-.68457.17725-.14063.23779-.06055.54443.17676.68408.96289.56689 1.96484 1.08936 2.97949 1.55371.25109.11463.54665.00502.66309-.24658.11426-.25098.00391-.54785-.24707-.6626z" fill="#d60c0c" data-original="#2a44e2" style="" class=""/><path d="m59.70221 21.55713c.25989-1.33258.39545-2.69025.39545-4.05273v-2.16797c0-.27637-.22363-.5-.5-.5-2.28711 0-4.14746-1.85596-4.14746-4.1377 0-.27637-.22363-.5-.5-.5h-4.2353c-4.79809-3.62323-10.75195-5.79394-17.2149-5.79394-15.79492 0-28.64551 12.84619-28.64551 28.63623 0 3.78302.75342 7.38849 2.09302 10.6969-.44092 1.86133-.68481 3.61121-.68481 5.09363 0 8.30896 7.48322 9.65881 14.32959 9.75812 3.88287 1.97113 8.26337 3.09735 12.90771 3.09735 5.37872 0 10.40753-1.50226 14.7121-4.09131h11.43927c.27637 0 .5-.22363.5-.5 0-.16596 0-14.30318 0-13.58118 1.28113-3.24683 1.99512-6.77692 1.99512-10.47351-.00001-4.08862-.88923-7.96411-2.44428-11.48389zm-.60455-5.74463v1.69189c0 3.37256-.85352 6.71924-2.46777 9.6792-3.06667 5.67381-7.69637 7.80871-8.51465 8.45996-.45596-.46648-10.98244-5.35577-10.98244-18.13915v-1.6919c2.43458-.23633 4.37696-2.17871 4.61329-4.61377h12.72852c.23633 2.43506 2.18359 4.37793 4.62305 4.61377zm-53.24317 17.22852c0-15.23877 12.40137-27.63623 27.64551-27.63623 5.74707 0 11.07611 1.78149 15.50269 4.79395h-7.73218c-.27637 0-.5.22363-.5.5 0 2.28174-1.85645 4.1377-4.1377 4.1377-.27636 0-.5.22363-.5.5v2.16797c0 13.22364 11.302 18.73883 11.71095 19.15479.08203.05322.17676.08008.27148.08008s.18945-.02686.27148-.08008c1.07478-.85139 8.3519-4.19449 10.92853-13.48761 1.17853 3.0672 1.83124 6.39252 1.83124 9.86945 0 2.58783-.3797 5.08441-1.04871 7.4613-.08105-.16681-.24835-.28406-.44641-.28406h-3.84961-20.94684c-1.4201-4.08893-3.63983-8.25543-6.33459-11.1554.9342-.3443 1.60565-1.23547 1.60565-2.28748 0-1.34814-1.09668-2.44531-2.44531-2.44531h-1.41425c2.01978-2.44336 2.98987-5.34393 2.94354-8.83936-.00195-.13623-.05957-.26611-.15918-.35938-.09961-.09277-.23633-.13721-.37012-.13281-1.34417.07958-1.49459 1.39551-2.34375 1.39551-.85466 0-1.02189-1.4043-2.46289-1.4043-1.42381 0-1.61634 1.4043-2.46191 1.4043-.85466 0-1.02189-1.4043-2.46289-1.4043-1.42287 0-1.61891 1.4043-2.45508 1.4043-.85036 0-.98077-1.31549-2.33594-1.39551-.26953-.01416-.51074.19287-.52832.46729-.22595 3.56342.71796 6.47327 2.86475 8.86426h-1.61183c-1.34862 0-2.4453 1.09717-2.4453 2.44531 0 1.12872.77271 2.07214 1.81445 2.35242-3.07916 3.34546-5.52838 8.35022-6.86627 12.95831-.98822-2.83552-1.53119-5.8769-1.53119-9.04511zm53.29688 10.97583c-1.44421-.21881-2.5802-1.35443-2.79907-2.79858h2.79907zm-44.26857-15.79614c-.79687 0-1.4453-.64844-1.4453-1.44531s.64844-1.44531 1.4453-1.44531h12.79786c.79688 0 1.44531.64844 1.44531 1.44531s-.64844 1.44531-1.44531 1.44531zm2.99513-3.89063c-2.25977-2.15625-3.33691-4.81738-3.27832-8.11182.41262.37181.82561 1.17578 1.89453 1.17578 1.42315 0 1.60818-1.4043 2.45508-1.4043.85466 0 1.02189 1.4043 2.46289 1.4043 1.42383 0 1.6197-1.4043 2.46191-1.4043.85466 0 1.02189 1.4043 2.46289 1.4043 1.03624 0 1.45145-.74645 1.86621-1.14307-.10352 3.21436-1.17383 5.86475-3.25879 8.0791h-7.0664zm-10.61523 24.50147c0-5.39423 3.45819-14.83325 8.26111-19.61084h11.77521c2.7204 2.70056 5.00769 6.87701 6.48206 10.99756-.23279 0-6.35867 0-6.25598 0-1.03076-2.36475-3.37073-4.03223-6.11102-4.03223-3.68652 0-6.68555 2.99902-6.68555 6.68506 0 3.68652 2.99902 6.68555 6.68555 6.68555 1.17023 0 2.26331-.31323 3.21973-.84528v4.53473 3.84961c0 .14728.0661.27631.16724.36774-1.04871.08679-2.16833.13617-3.38599.13617-9.78811-.01173-14.15236-2.71583-14.15236-8.76807zm18.37109 7.76416v-2.79907c1.44421.21881 2.5802 1.35455 2.79907 2.79907zm-1-15.87744c0 .6705 0 6.9149 0 6.81067-.91748.63843-2.01959 1.02771-3.21973 1.02771-3.13477 0-5.68555-2.55029-5.68555-5.68555 0-3.13477 2.55078-5.68506 5.68555-5.68506 2.17407 0 4.05353 1.23425 5.00897 3.03223h-1.28925c-.27636 0-.49999.22363-.49999.5zm1 .5h2.79907c-.21887 1.44415-1.35486 2.57977-2.79907 2.79858zm7.86621 19.46875c-3.74823 0-7.3241-.75079-10.58643-2.10828 2.41687-.0636 4.87134-.31451 7.02808-.98303h16.24023c-3.80102 1.97186-8.11218 3.09131-12.68188 3.09131zm-4.04492-4.09131c-.23047-1.99951-1.82129-3.59131-3.82129-3.8208v-7.73584c2-.22998 3.59082-1.82129 3.82129-3.8208h25.875c.23047 1.99951 1.82129 3.59082 3.82129 3.8208v7.73584c-2 .22949-3.59082 1.82129-3.82129 3.8208zm26.89721 0c.21887-1.44452 1.35486-2.58026 2.79907-2.79907v2.79907z" fill="#d60c0c" data-original="#2a44e2" style="" class=""/><path d="m33.15234 45.71338c-1.5 0-2.7207 1.21533-2.7207 2.70898 0 1.5 1.2207 2.72021 2.7207 2.72021 1.49414 0 2.70898-1.22021 2.70898-2.72021.00001-1.49365-1.21484-2.70898-2.70898-2.70898zm0 4.4292c-.94922 0-1.7207-.77148-1.7207-1.72021 0-.94238.77148-1.70898 1.7207-1.70898.94238 0 1.70898.7666 1.70898 1.70898.00001.94873-.76659 1.72021-1.70898 1.72021z" fill="#d60c0c" data-original="#2a44e2" style="" class=""/><path d="m51.85156 45.71338c-1.5 0-2.7207 1.21533-2.7207 2.70898 0 1.5 1.2207 2.72021 2.7207 2.72021 1.49414 0 2.70898-1.22021 2.70898-2.72021.00001-1.49365-1.21484-2.70898-2.70898-2.70898zm0 4.4292c-.94922 0-1.7207-.77148-1.7207-1.72021 0-.94238.77148-1.70898 1.7207-1.70898.94238 0 1.70898.7666 1.70898 1.70898.00001.94873-.76659 1.72021-1.70898 1.72021z" fill="#d60c0c" data-original="#2a44e2" style="" class=""/><path d="m42.39258 45.72852c.73926 0 1.34082.60107 1.34082 1.34033 0 .27637.22363.5.5.5s.5-.22363.5-.5c0-1.11865-.78986-2.05377-1.84082-2.28375v-.34271c0-.27637-.22363-.5-.5-.5s-.5.22363-.5.5v.34277c-1.05011.23004-1.83984 1.16516-1.83984 2.28369 0 1.2876 1.0498 2.33545 2.33984 2.33545.73926 0 1.34082.60107 1.34082 1.34033s-.60156 1.34082-1.34082 1.34082-1.33984-.60156-1.33984-1.34082c0-.27637-.22363-.5-.5-.5s-.5.22363-.5.5c0 1.11853.78973 2.05402 1.83984 2.28412v.34235c0 .27637.22363.5.5.5s.5-.22363.5-.5v-.34229c1.05096-.2301 1.84082-1.16553 1.84082-2.28418 0-1.29053-1.0498-2.34033-2.34082-2.34033-.73926 0-1.33984-.59912-1.33984-1.33545-.00001-.73926.60058-1.34033 1.33984-1.34033z" fill="#d60c0c" data-original="#2a44e2" style="" class=""/><path d="m46.93555 22.52784c.07324.11475.19141.19434.3252.22021.03125.00586.06348.00879.09473.00879.10352 0 .20508-.03174.29004-.09277l3.17676-2.26221c.22461-.16016.27734-.47217.11719-.69727-.16016-.22559-.47266-.27686-.69727-.11719l-2.75 1.9585-.74121-1.15039c-.14844-.23193-.46094-.29834-.69043-.14941-.23242.14941-.2998.45898-.14941.69141z" fill="#d60c0c" data-original="#2a44e2" style="" class=""/></g></g></g></svg>
