<svg xmlns="http://www.w3.org/2000/svg" width="512" height="512" viewBox="0 0 67 67"><g xmlns="http://www.w3.org/2000/svg"><path d="M36.074 48.831c-.01 7.575-6.566 9.268-14.66 9.268-8.094-.01-14.65-1.693-14.65-9.268s6.566-23.067 14.66-23.067c8.093 0 14.65 15.492 14.65 23.067zM28.71 15.497c.047 3.532-.989 6.694-3.552 9.333H17.68c-2.805-2.594-3.777-5.773-3.551-9.333 1.133.068 1.17 1.397 2.365 1.397 1.224 0 1.224-1.404 2.455-1.404s1.231 1.404 2.463 1.404 1.231-1.404 2.462-1.404c1.232 0 1.232 1.404 2.463 1.404 1.201 0 1.24-1.329 2.373-1.397z" fill="#00000000" data-original="#ffffff"/><path d="M29.626 26.776a1.945 1.945 0 01-1.945 1.945H14.883a1.945 1.945 0 010-3.89h12.798c1.074 0 1.945.87 1.945 1.945z" fill="#d60c0c" data-original="#8f9fff"/><g fill="#fff"><circle cx="21.414" cy="42.871" r="6.185" fill="#00000000" data-original="#ffffff"/><path d="M25.134 40.718h34.517v16.378H25.134z" fill="#00000000" data-original="#ffffff"/><path d="M55.802 57.096H28.984a3.85 3.85 0 00-3.85-3.85v-8.678a3.85 3.85 0 003.85-3.85h26.818a3.85 3.85 0 003.85 3.85v8.678a3.85 3.85 0 00-3.85 3.85z" fill="#00000000" data-original="#ffffff"/></g><path d="M35.361 48.423c0 1.227-.992 2.22-2.209 2.22a2.218 2.218 0 01-2.22-2.22 2.214 2.214 0 014.43 0zM54.06 48.423c0 1.227-.992 2.22-2.209 2.22a2.218 2.218 0 01-2.22-2.22 2.214 2.214 0 014.43 0z" fill="#d60c0c" data-original="#8f9fff"/><g fill="#fff"><path d="M42.393 48.904a1.84 1.84 0 01-1.84-1.835c0-1.014.826-1.84 1.84-1.84 1.014 0 1.84.826 1.84 1.84M42.393 48.904c1.014 0 1.84.827 1.84 1.84 0 1.015-.826 1.841-1.84 1.841a1.843 1.843 0 01-1.84-1.84M42.393 45.228v-.786M42.393 53.371v-.786" fill="#00000000" data-original="#ffffff"/></g><path d="M59.597 15.336v2.168c0 3.52-.894 6.923-2.527 9.917a20.721 20.721 0 01-6.942 7.516l-2.013 1.302-2.012-1.302a20.766 20.766 0 01-9.47-17.432v-2.169a4.63 4.63 0 004.638-4.637h13.68a4.639 4.639 0 004.646 4.637z" fill="#00000000" data-original="#ffffff"/><path d="M53.044 21.121a4.608 4.608 0 01-4.608 4.618 4.61 4.61 0 01-4.618-4.618 4.608 4.608 0 014.618-4.608 4.606 4.606 0 014.608 4.608z" fill="#d60c0c" data-original="#8f9fff"/><g fill="#2a44e2"><path d="M15.36 7.317a.5.5 0 00-.576-.816C6.152 12.597 1 22.519 1 33.041c0 .998.05 2.039.151 3.093a.5.5 0 00.996-.094A31.72 31.72 0 012 33.04C2 22.843 6.995 13.227 15.36 7.317zM20.44 4.395a31.352 31.352 0 016.09-2.058.5.5 0 10-.221-.976 32.354 32.354 0 00-6.285 2.124.5.5 0 00.416.91zM62.955 19.334a.501.501 0 00-.906.424A31.126 31.126 0 0165 33.041c0 3.09-.454 6.155-1.349 9.11-.191.634.765.924.957.29a32.4 32.4 0 001.392-9.4 32.12 32.12 0 00-3.045-13.707zM57.99 59.91h-3.876a.5.5 0 100 1h3.876a.5.5 0 100-1zM51.691 59.91h-1.427a.5.5 0 100 1h1.427a.5.5 0 100-1zM32.12 64.652a31.429 31.429 0 01-9.19-1.788.5.5 0 00-.336.942 32.428 32.428 0 009.482 1.845h.022a.5.5 0 00.021-.999zM20.389 61.833a31.891 31.891 0 01-2.888-1.506.499.499 0 10-.508.861c.963.567 1.965 1.09 2.98 1.554a.5.5 0 00.416-.909z" fill="#d60c0c" data-original="#2a44e2"/><path d="M59.702 21.557c.26-1.332.396-2.69.396-4.053v-2.168a.5.5 0 00-.5-.5A4.147 4.147 0 0155.45 10.7a.5.5 0 00-.5-.5h-4.235C45.917 6.576 39.963 4.405 33.5 4.405 17.705 4.405 4.854 17.25 4.854 33.04c0 3.783.754 7.389 2.094 10.697-.441 1.861-.685 3.611-.685 5.094 0 8.309 7.483 9.658 14.33 9.758A28.43 28.43 0 0033.5 61.687a28.452 28.452 0 0014.712-4.091h11.44a.5.5 0 00.5-.5V43.515a28.33 28.33 0 00-.45-21.957zm-.604-5.744v1.691c0 3.373-.854 6.72-2.468 9.68-3.067 5.673-7.696 7.808-8.515 8.46-.456-.467-10.982-5.356-10.982-18.14v-1.691a5.147 5.147 0 004.613-4.614h12.729a5.152 5.152 0 004.623 4.614zM5.854 33.04c0-15.239 12.402-27.636 27.646-27.636 5.747 0 11.076 1.781 15.503 4.794H41.27a.5.5 0 00-.5.5 4.142 4.142 0 01-4.138 4.137.5.5 0 00-.5.5v2.168c0 13.224 11.302 18.74 11.71 19.155a.499.499 0 00.544 0c1.074-.851 8.352-4.194 10.928-13.487a27.455 27.455 0 011.831 9.869c0 2.588-.38 5.084-1.048 7.461a.497.497 0 00-.447-.284H34.855c-1.42-4.089-3.64-8.255-6.335-11.155a2.442 2.442 0 001.606-2.288 2.448 2.448 0 00-2.445-2.445h-1.415c2.02-2.443 2.99-5.344 2.944-8.84a.503.503 0 00-.16-.359.52.52 0 00-.37-.132c-1.344.08-1.494 1.395-2.343 1.395-.855 0-1.022-1.404-2.463-1.404-1.424 0-1.616 1.404-2.462 1.404-.855 0-1.022-1.404-2.463-1.404-1.423 0-1.619 1.404-2.455 1.404-.85 0-.98-1.315-2.336-1.395a.505.505 0 00-.528.467c-.226 3.563.718 6.473 2.865 8.864h-1.612a2.448 2.448 0 00-2.445 2.445c0 1.13.772 2.073 1.814 2.353-3.08 3.345-5.528 8.35-6.866 12.958a27.427 27.427 0 01-1.532-9.045zm53.297 10.976a3.339 3.339 0 01-2.799-2.799h2.8zM14.883 28.22c-.797 0-1.445-.649-1.445-1.446s.648-1.445 1.445-1.445H27.68c.797 0 1.445.649 1.445 1.445s-.648 1.446-1.445 1.446zm2.995-3.89c-2.26-2.157-3.337-4.818-3.278-8.113.412.372.825 1.176 1.894 1.176 1.423 0 1.608-1.404 2.455-1.404.855 0 1.022 1.404 2.463 1.404 1.424 0 1.62-1.404 2.462-1.404.855 0 1.022 1.404 2.463 1.404 1.036 0 1.451-.746 1.866-1.143-.103 3.214-1.174 5.865-3.259 8.08h-7.066zM7.263 48.83c0-5.394 3.458-14.833 8.26-19.61H27.3c2.72 2.7 5.008 6.877 6.482 10.997h-6.256c-1.03-2.364-3.37-4.032-6.11-4.032a6.693 6.693 0 00-6.686 6.685 6.693 6.693 0 006.685 6.686c1.17 0 2.263-.314 3.22-.846v8.385c0 .147.066.276.167.367a40.898 40.898 0 01-3.386.137c-9.788-.012-14.152-2.716-14.152-8.768zm18.37 7.765v-2.8a3.339 3.339 0 012.8 2.8zm-1-15.878v6.81a5.614 5.614 0 01-3.219 1.029 5.692 5.692 0 01-5.685-5.686 5.692 5.692 0 015.685-5.685c2.174 0 4.054 1.234 5.009 3.032h-1.29a.5.5 0 00-.5.5zm1 .5h2.8a3.339 3.339 0 01-2.8 2.799zM33.5 60.687c-3.748 0-7.324-.75-10.586-2.108 2.416-.064 4.87-.315 7.028-.983h16.24A27.46 27.46 0 0133.5 60.687zm-4.045-4.091a4.358 4.358 0 00-3.821-3.821v-7.736c2-.23 3.59-1.821 3.821-3.82H55.33c.23 1.999 1.821 3.59 3.821 3.82v7.736c-2 .23-3.59 1.821-3.82 3.82zm26.897 0a3.339 3.339 0 012.8-2.8v2.8z" fill="#d60c0c" data-original="#2a44e2"/><path d="M33.152 45.713c-1.5 0-2.72 1.216-2.72 2.71 0 1.5 1.22 2.72 2.72 2.72a2.717 2.717 0 002.71-2.72 2.712 2.712 0 00-2.71-2.71zm0 4.43c-.949 0-1.72-.772-1.72-1.72 0-.943.771-1.71 1.72-1.71a1.71 1.71 0 011.71 1.71c0 .948-.767 1.72-1.71 1.72zM51.852 45.713c-1.5 0-2.721 1.216-2.721 2.71 0 1.5 1.22 2.72 2.72 2.72a2.717 2.717 0 002.71-2.72 2.712 2.712 0 00-2.71-2.71zm0 4.43c-.95 0-1.721-.772-1.721-1.72 0-.943.771-1.71 1.72-1.71a1.71 1.71 0 011.71 1.71c0 .948-.767 1.72-1.71 1.72zM42.393 45.729c.739 0 1.34.6 1.34 1.34a.5.5 0 101 0c0-1.119-.79-2.054-1.84-2.284v-.343a.5.5 0 10-1 0v.343a2.342 2.342 0 00-1.84 2.284 2.34 2.34 0 002.34 2.335c.739 0 1.34.601 1.34 1.34s-.601 1.341-1.34 1.341-1.34-.601-1.34-1.34a.5.5 0 10-1 0c0 1.118.79 2.054 1.84 2.284v.342a.5.5 0 101 0v-.342a2.343 2.343 0 001.84-2.284c0-1.29-1.05-2.34-2.34-2.34a1.339 1.339 0 110-2.676zM46.936 22.528a.498.498 0 00.71.136l3.176-2.262a.5.5 0 00-.58-.815l-2.75 1.959-.741-1.15a.5.5 0 00-.84.542z" fill="#d60c0c" data-original="#2a44e2"/></g></g></svg>